<svg xmlns="http://www.w3.org/2000/svg" fill="none" viewBox="0 0 32 32"><path fill="#fff" d="M0 0h32v32H0z"/><path fill="#FDC400" fill-rule="evenodd" d="M14.738 4.814h2.311V0h-2.311zM10.753 6.5 8.346 2.332l2.001-1.156 2.407 4.168zM21.44 25.011l-2.407-4.169 2.002-1.155 2.406 4.168zm5.215-4.37-4.168-2.407 1.156-2.001 4.168 2.407zM2.8 14.249h4.814v-2.311H2.8zm21.373 0h4.814v-2.311h-4.814zm-19.04 6.392L3.976 18.64l4.167-2.407L9.3 18.234zm18.51-10.687-1.156-2.002 4.168-2.406 1.156 2.001zM21.035 6.5l-2.002-1.156 2.407-4.168 2.001 1.156zM10.347 25.011l-2-1.156 2.406-4.168 2.001 1.155zm4.391 1.176h2.311v-4.814h-2.311zM8.144 9.954 3.977 7.547l1.155-2.001L9.3 7.952z" clip-rule="evenodd"/><path fill="#FDC400" d="M15.893 20.217a7.124 7.124 0 1 0 0-14.248 7.124 7.124 0 0 0 0 14.248"/></svg>